<?xml version="1.0" encoding="utf-8"?>
<svg xmlns="http://www.w3.org/2000/svg" width="21px" height="21px">
<path d="M8.892,15.632c-0.48,0.24-1.44,0.48-2.67,0.48c-2.85,0-4.995-1.801-4.995-5.115c0-3.165,2.145-5.31,5.28-5.31
    c1.26,0,2.055,0.27,2.4,0.45L8.592,7.202c-0.495-0.24-1.2-0.42-2.04-0.42c-2.37,0-3.945,1.515-3.945,4.17
    c0,2.475,1.425,4.064,3.885,4.064c0.795,0,1.605-0.165,2.13-0.42L8.892,15.632z"/>
<path d="M10.167,9.902c0-0.555,0.375-0.945,0.9-0.945c0.524,0,0.87,0.39,0.885,0.945c0,0.525-0.345,0.93-0.9,0.93
    C10.527,10.832,10.167,10.427,10.167,9.902z M10.167,15.197c0-0.556,0.375-0.945,0.9-0.945c0.524,0,0.87,0.39,0.885,0.945
    c0,0.524-0.345,0.93-0.9,0.93C10.527,16.127,10.167,15.722,10.167,15.197z"/>
<path d="M15.552,6.962h-3.074v-1.11h7.484v1.11h-3.09v9h-1.32V6.962z"/>
</svg>
