<?xml version="1.0" encoding="utf-8"?>
<svg xmlns="http://www.w3.org/2000/svg" width="21px" height="21px">
<path d="M8.841,9.068C8.682,8.38,8.291,7.899,7.672,7.626C7.326,7.476,6.94,7.4,6.517,7.4c-0.811,0-1.478,0.306-2,0.918 C3.995,8.93,3.734,9.85,3.734,11.078c0,1.236,0.283,2.112,0.848,2.627c0.565,0.514,1.208,0.771,1.928,0.771 c0.707,0,1.285-0.202,1.736-0.608c0.451-0.404,0.729-0.936,0.834-1.593H6.749v-1.682h4.197V16H9.552L9.34,14.742 c-0.406,0.477-0.77,0.812-1.094,1.008c-0.556,0.34-1.24,0.51-2.051,0.51c-1.335,0-2.429-0.463-3.281-1.387 c-0.889-0.93-1.333-2.199-1.333-3.812c0-1.63,0.449-2.937,1.347-3.921s2.085-1.476,3.562-1.476c1.281,0,2.31,0.325,3.087,0.974 c0.776,0.649,1.222,1.459,1.336,2.43H8.841z"/>
<path d="M12.956,5.924h2.105v8.265h5.031V16h-7.137V5.924z"/>
</svg>
